# xmcd
#
# Track frame offsets:
#	187
#	28455
#	59417
#	86240
#	110882
#	141407
#	177515
#	209015
#	255120
#
# Disc length: 3968 seconds
#
# Revision: 1
# Processed by: cddbd v1.5.1PL0 Copyright (c) Steve Scherf et al.
# Submitted via: CDex 1.50Beta5
#
DISCID=900f7e09
DTITLE=坂田和人 - アチゲンガ-ピュア・アマゾン
DYEAR=1900
DGENRE=
TTITLE0=夜明け Daybreak
TTITLE1=沼 Lake
TTITLE2=太陽 Sun
TTITLE3=虫たち Worms
TTITLE4=鳥たち Birds
TTITLE5=雷鳴 Lightning
TTITLE6=吠え猿 Monkeys
TTITLE7=蛙たち Frogs
TTITLE8=夜更け Midnight
EXTD=
EXTT0=
EXTT1=
EXTT2=
EXTT3=
EXTT4=
EXTT5=
EXTT6=
EXTT7=
EXTT8=
PLAYORDER=
